<?xml version="1.0" encoding="UTF-8" standalone="no"?>
<!-- Generator: Adobe Illustrator 19.0.0, SVG Export Plug-In . SVG Version: 6.00 Build 0)  -->

<svg
   version="1.1"
   id="Layer_1"
   x="0px"
   y="0px"
   viewBox="0 0 172.04725 81.999997"
   xml:space="preserve"
   sodipodi:docname="logo.svg"
   width="172.04724"
   height="82"
   inkscape:version="1.2.2 (b0a8486541, 2022-12-01)"
   xmlns:inkscape="http://www.inkscape.org/namespaces/inkscape"
   xmlns:sodipodi="http://sodipodi.sourceforge.net/DTD/sodipodi-0.dtd"
   xmlns="http://www.w3.org/2000/svg"
   xmlns:svg="http://www.w3.org/2000/svg"
   xmlns:rdf="http://www.w3.org/1999/02/22-rdf-syntax-ns#"
   xmlns:cc="http://creativecommons.org/ns#"
   xmlns:dc="http://purl.org/dc/elements/1.1/"><metadata
   id="metadata59"><rdf:RDF><cc:Work
       rdf:about=""><dc:format>image/svg+xml</dc:format><dc:type
         rdf:resource="http://purl.org/dc/dcmitype/StillImage" /></cc:Work></rdf:RDF></metadata><defs
   id="defs57" /><sodipodi:namedview
   pagecolor="#ffffff"
   bordercolor="#666666"
   borderopacity="1"
   objecttolerance="10"
   gridtolerance="10"
   guidetolerance="10"
   inkscape:pageopacity="0"
   inkscape:pageshadow="2"
   inkscape:window-width="2560"
   inkscape:window-height="1390"
   id="namedview55"
   showgrid="false"
   inkscape:zoom="4.4850931"
   inkscape:cx="156.85293"
   inkscape:cy="-19.954993"
   inkscape:window-x="0"
   inkscape:window-y="50"
   inkscape:window-maximized="1"
   inkscape:current-layer="Layer_1"
   inkscape:showpageshadow="2"
   inkscape:pagecheckerboard="0"
   inkscape:deskcolor="#d1d1d1" />
<style
   type="text/css"
   id="style2">
	.st0{fill:#38A4DD;}
	.st1{fill:#58C1EF;}
	.st2{fill:#4DAF4E;}
	.st3{fill:#8BC249;}
	.st4{fill:#F37021;}
	.st5{fill:#F9A01B;}
	.st6{fill:#546E7A;}
	.st7{font-family:'Hero';}
	.st8{font-size:10px;}
</style>
<g
   id="XMLID_101_"
   transform="translate(-205.0668,-25.1)">
	<g
   id="XMLID_161_">
		<g
   id="XMLID_171_">
			<path
   id="XMLID_6_"
   class="st0"
   d="M 334.2,46.5 V 67 c 0,2.3 -1.9,4.2 -4.2,4.2 h -2 c -2.3,0 -4.2,-1.9 -4.2,-4.2 V 46.5 c 0,-2.3 1.9,-4.2 4.2,-4.2 h 2 c 2.4,0 4.2,1.8 4.2,4.2 z"
   inkscape:connector-curvature="0"
   style="fill:#38a4dd" />
			<path
   id="XMLID_5_"
   class="st1"
   d="m 334.2,32.6 v 1.8 c 0,2.3 -1.9,4.2 -4.2,4.2 h -1.8 c -2.3,0 -4.2,-1.9 -4.2,-4.2 v -1.8 c 0,-2.3 1.9,-4.2 4.2,-4.2 h 1.8 c 2.3,0 4.2,1.9 4.2,4.2 z"
   inkscape:connector-curvature="0"
   style="fill:#58c1ef" />
			<path
   id="XMLID_4_"
   class="st2"
   d="m 317.8,32.5 v 20.9 c 0,2.3 -1.9,4.2 -4.2,4.2 h -11.8 c -2.3,0 -4.2,-1.9 -4.2,-4.2 v -2 c 0,-2.3 1.9,-4.2 4.2,-4.2 h 1.4 c 2.3,0 4.2,-1.9 4.2,-4.2 v -0.2 c 0,-2.3 -1.9,-4.2 -4.2,-4.2 h -5.1 c -2.3,0 -4.2,1.9 -4.2,4.2 v 10.5 c 0,2.3 -1.9,4.2 -4.2,4.2 h -2 c -2.3,0 -4.2,-1.9 -4.2,-4.2 V 32.5 c 0,-2.3 1.9,-4.2 4.2,-4.2 h 25.8 c 2.4,0 4.3,1.9 4.3,4.2 z"
   inkscape:connector-curvature="0"
   style="fill:#4daf4e" />
			<path
   id="XMLID_7_"
   class="st3"
   d="m 293.8,65.6 v 1.8 c 0,2.3 -1.9,4.2 -4.2,4.2 h -1.8 c -2.3,0 -4.2,-1.9 -4.2,-4.2 v -1.8 c 0,-2.3 1.9,-4.2 4.2,-4.2 h 1.8 c 2.4,0 4.2,1.8 4.2,4.2 z"
   inkscape:connector-curvature="0"
   style="fill:#8bc249" />
			<path
   id="XMLID_8_"
   class="st4"
   d="m 277.6,32.5 v 34.8 c 0,2.3 -1.9,4.2 -4.2,4.2 h -21.9 c -2.3,0 -4.2,-1.9 -4.2,-4.2 v -2 c 0,-2.3 1.9,-4.2 4.2,-4.2 H 263 c 2.3,0 4.2,-1.9 4.2,-4.2 V 32.5 c 0,-2.3 1.9,-4.2 4.2,-4.2 h 2 c 2.3,0 4.2,1.9 4.2,4.2 z"
   inkscape:connector-curvature="0"
   style="fill:#f37021" />
			<path
   id="XMLID_9_"
   class="st5"
   d="m 257.5,51.6 v 1.8 c 0,2.3 -1.9,4.2 -4.2,4.2 h -1.8 c -2.3,0 -4.2,-1.9 -4.2,-4.2 v -1.8 c 0,-2.3 1.9,-4.2 4.2,-4.2 h 1.8 c 2.3,0 4.2,1.9 4.2,4.2 z"
   inkscape:connector-curvature="0"
   style="fill:#f9a01b" />
		</g>
		<g
   id="XMLID_170_">
		</g>
	</g>
	<g
   id="XMLID_103_">
		<path
   id="XMLID_160_"
   class="st6"
   d="m 234.8,85.5 c -0.4,0 -0.8,0.3 -0.8,0.8 v 13.2 c 0,0.5 0.4,0.8 0.8,0.8 0.4,0 0.8,-0.3 0.8,-0.8 V 86.4 c 0,-0.6 -0.4,-0.9 -0.8,-0.9 z"
   inkscape:connector-curvature="0"
   style="fill:#546e7a" />
		<path
   id="XMLID_157_"
   class="st6"
   d="m 253.2,86 h -9.8 c -0.5,0 -0.8,0.4 -0.8,0.8 0,0.4 0.3,0.8 0.8,0.8 h 4.1 v 12 c 0,0.5 0.4,0.8 0.8,0.8 0.4,0 0.8,-0.3 0.8,-0.8 0,-1.7 0,-3.9 0,-6.1 0,-2.1 0,-4.3 0,-6 h 4.1 c 0.2,0 0.5,-0.1 0.6,-0.2 0.1,-0.1 0.2,-0.3 0.2,-0.5 0,-0.4 -0.3,-0.8 -0.8,-0.8 z"
   inkscape:connector-curvature="0"
   style="fill:#546e7a" />
		<path
   id="XMLID_152_"
   class="st6"
   d="m 274.7,97.3 c -0.3,0 -0.5,0.1 -0.7,0.3 -0.6,0.8 -1.5,1.2 -2.7,1.2 -1,0 -2,-0.5 -2.7,-1.2 -0.5,-0.6 -0.8,-1.5 -0.8,-2.4 0,-2.2 1.4,-3.7 3.4,-3.7 0.7,0 1.8,0.2 2.6,1.1 0.2,0.2 0.4,0.3 0.7,0.3 0.3,-0.1 0.5,-0.3 0.6,-0.5 0.1,-0.2 0,-0.5 -0.1,-0.7 -1,-1.1 -2.1,-1.6 -3.6,-1.6 -2.9,0 -5,1.9 -5.1,4.8 -0.1,1.4 0.3,2.8 1.1,3.8 0.9,1.1 2.4,1.7 3.9,1.7 1.5,0 2.9,-0.6 3.8,-1.7 0.2,-0.2 0.3,-0.5 0.2,-0.8 0,-0.3 -0.3,-0.5 -0.6,-0.6 z"
   inkscape:connector-curvature="0"
   style="fill:#546e7a" />
		<path
   id="XMLID_151_"
   class="st6"
   d="m 283,90.1 c -1.5,0 -2.8,0.6 -3.5,1.6 v -5.4 c 0,-0.5 -0.4,-0.7 -0.8,-0.7 -0.4,0 -0.8,0.2 -0.8,0.7 v 13.2 c 0,0.5 0.3,0.8 0.8,0.8 0.5,0 0.8,-0.3 0.8,-0.8 v -4.7 c 0,-2 1.8,-3.1 3.5,-3.1 1.4,0 2.8,1.1 2.8,2.9 v 5 c 0,0.5 0.3,0.8 0.8,0.8 0.5,0 0.8,-0.3 0.8,-0.8 v -5 c 0,-3 -2.2,-4.5 -4.4,-4.5 z"
   inkscape:connector-curvature="0"
   style="fill:#546e7a" />
		<path
   id="XMLID_150_"
   class="st6"
   d="m 296,90.1 c -1.6,0 -2.8,0.6 -3.5,1.7 V 91 c 0,-0.2 -0.1,-0.4 -0.2,-0.6 -0.1,-0.1 -0.3,-0.2 -0.5,-0.2 -0.4,0 -0.8,0.3 -0.8,0.8 v 8.5 c 0,0.5 0.3,0.8 0.8,0.8 0.5,0 0.8,-0.3 0.8,-0.8 V 95 c 0,-1.7 1.4,-3.5 3.5,-3.5 1.4,0 2.8,1.1 2.8,2.9 v 5 c 0,0.5 0.3,0.8 0.8,0.8 0.5,0 0.8,-0.3 0.8,-0.8 v -5 c -0.1,-2.8 -2.3,-4.3 -4.5,-4.3 z"
   inkscape:connector-curvature="0"
   style="fill:#546e7a" />
		<path
   id="XMLID_145_"
   class="st6"
   d="m 309.6,90.2 c -0.5,-0.1 -0.9,-0.2 -1.4,-0.2 -0.6,0 -1.1,0.1 -1.5,0.2 -2.1,0.6 -3.4,2.3 -3.6,4.6 -0.1,1.5 0.3,2.7 1.2,3.7 0.9,1.1 2.3,1.7 3.9,1.7 1.6,0 3,-0.6 3.9,-1.7 0.9,-1 1.3,-2.3 1.2,-3.7 -0.3,-2.2 -1.7,-4 -3.7,-4.6 z m 2,5 c 0,0.8 -0.3,1.7 -0.8,2.3 -0.7,0.8 -1.7,1.2 -2.7,1.2 -1,0 -2,-0.5 -2.7,-1.2 -0.5,-0.6 -0.8,-1.5 -0.8,-2.3 0,-1.7 1,-3.1 2.5,-3.5 0.3,-0.1 0.7,-0.1 1,-0.1 0.3,0 0.7,0 1,0.1 1.5,0.4 2.5,1.8 2.5,3.5 z"
   inkscape:connector-curvature="0"
   style="fill:#546e7a" />
		<path
   id="XMLID_144_"
   class="st6"
   d="m 316.4,85.5 c -0.5,0 -0.8,0.3 -0.8,0.8 v 13.2 c 0,0.4 0.3,0.8 0.8,0.8 0.4,0 0.8,-0.3 0.8,-0.8 V 86.2 c 0,-0.4 -0.3,-0.7 -0.8,-0.7 z"
   inkscape:connector-curvature="0"
   style="fill:#546e7a" />
		<path
   id="XMLID_141_"
   class="st6"
   d="m 326.3,90.2 c -0.5,-0.1 -0.9,-0.2 -1.4,-0.2 -0.6,0 -1.1,0.1 -1.5,0.2 -2.1,0.6 -3.4,2.3 -3.6,4.6 -0.1,1.5 0.3,2.7 1.2,3.7 0.9,1.1 2.3,1.7 3.9,1.7 1.6,0 3,-0.6 3.9,-1.7 0.9,-1 1.3,-2.3 1.2,-3.7 -0.3,-2.2 -1.7,-4 -3.7,-4.6 z m 2,5 c 0,0.8 -0.3,1.7 -0.8,2.3 -0.7,0.8 -1.7,1.2 -2.7,1.2 -1,0 -2,-0.5 -2.7,-1.2 -0.5,-0.6 -0.8,-1.5 -0.8,-2.3 0,-1.7 1,-3.1 2.5,-3.5 0.3,-0.1 0.7,-0.1 1,-0.1 0.3,0 0.7,0 1,0.1 1.5,0.4 2.5,1.8 2.5,3.5 z"
   inkscape:connector-curvature="0"
   style="fill:#546e7a" />
		<path
   id="XMLID_139_"
   class="st6"
   d="M 345,86.2 V 87 c 0,0.5 0.4,0.8 0.8,0.8 0.4,0 0.8,-0.3 0.8,-0.8 v -0.9 c 0,-0.9 -1.6,-0.9 -1.6,0.1 z"
   inkscape:connector-curvature="0"
   style="fill:#546e7a" />
		<path
   id="XMLID_138_"
   class="st6"
   d="m 345.8,90.2 c -0.4,0 -0.8,0.3 -0.8,0.7 v 8.5 c 0,0.5 0.4,0.7 0.8,0.7 0.4,0 0.8,-0.2 0.8,-0.7 v -8.6 c 0,-0.3 -0.4,-0.6 -0.8,-0.6 z"
   inkscape:connector-curvature="0"
   style="fill:#546e7a" />
		<path
   id="XMLID_136_"
   class="st6"
   d="m 366,94.3 v 0 c -0.2,0 -0.3,0 -0.4,0 -1.5,-0.1 -2.4,-0.2 -2.4,-1.2 0,-1.1 1.5,-1.5 2.6,-1.5 0.6,0 2.3,0 2.8,1.1 0.1,0.4 0.6,0.5 1,0.4 0.4,-0.1 0.7,-0.5 0.5,-1 -0.5,-1.4 -1.9,-2 -4.3,-2 -1.7,0 -4.2,0.8 -4.2,3 0,2.4 2.3,2.6 4.3,2.8 h 0.3 c 1.5,0.1 2.7,0.2 2.7,1.3 0,1.2 -1.9,1.6 -2.8,1.6 -1.3,0 -2.8,-0.4 -3,-1.2 -0.1,-0.3 -0.2,-0.5 -0.5,-0.6 -0.3,-0.1 -0.6,0 -0.9,0.2 -0.2,0.2 -0.3,0.4 -0.2,0.7 0.4,2.1 3.3,2.4 4.5,2.4 1.6,0 4.4,-0.6 4.4,-3.1 0,-2.5 -2.3,-2.7 -4.4,-2.9 z"
   inkscape:connector-curvature="0"
   style="fill:#546e7a" />
		<path
   id="XMLID_133_"
   class="st6"
   d="m 216,86.8 v 9 c 0,1.8 -1.8,3 -3.5,3 -0.5,0 -0.8,0.4 -0.7,0.8 0,0.3 0.2,0.6 0.6,0.7 v 0 c 0,0 0,0 0,0 0,0 0,0 0,0 v 0 c 1.4,0 2.8,-0.6 3.7,-1.5 0.8,-0.8 1.3,-1.9 1.3,-3 v -9 c 0.1,-1.1 -1.4,-1.1 -1.4,0 z"
   inkscape:connector-curvature="0"
   style="fill:#546e7a" />
		<path
   id="XMLID_108_"
   class="st6"
   d="m 340.9,90.2 c -0.5,0 -0.8,0.3 -0.8,0.8 v 0.4 c -0.7,-0.9 -2,-1.2 -3,-1.2 -0.6,0 -1.3,0.1 -1.8,0.3 -2,0.8 -3.2,2.7 -3.1,5 0,2 1.2,3.7 3,4.5 0.6,0.3 1.3,0.4 2.1,0.4 1.2,0 2.3,-0.5 2.9,-1.4 v 0.7 c 0,2 -1.8,2.7 -3.3,2.7 -0.5,0 -0.8,0.4 -0.8,0.8 0,0.4 0.3,0.7 0.8,0.7 0,0 0,0 0,0 2.9,0 4.8,-1.7 4.8,-4.3 V 91 c 0,-0.5 -0.4,-0.8 -0.8,-0.8 z m -2.4,1.7 c 1,0.5 1.5,1.3 1.5,2.5 v 1.5 c 0,1.5 -1.3,2.7 -2.9,2.8 0,0 0,0 0,0 -1.4,0 -2.6,-0.8 -3.1,-2 -0.2,-0.4 -0.3,-0.9 -0.3,-1.4 0,-1.3 0.4,-2.4 1.4,-3.1 l 0.1,-0.1 c 0.9,-0.6 2.2,-0.7 3.3,-0.2 z"
   inkscape:connector-curvature="0"
   style="fill:#546e7a" />
		<path
   id="XMLID_106_"
   class="st6"
   d="m 260.4,90.3 v 0 c -1,-0.3 -2.1,-0.3 -2.9,0 -1.6,0.4 -2.8,1.6 -3.3,3.1 -0.6,1.7 -0.3,3.7 0.8,5.1 0.9,1.1 2.4,1.7 4,1.7 0,0 0.1,0 0.1,0 1.4,0 2.6,-0.4 3.4,-1.2 0.4,-0.4 0.3,-0.8 0.1,-1.1 -0.3,-0.3 -0.8,-0.4 -1.2,0 -0.8,0.6 -1.8,0.8 -2.5,0.8 -1.7,0 -3.1,-1.1 -3.4,-2.8 0,0 0,-0.3 -0.1,-0.6 0,-0.2 0,-0.5 0,-0.5 0.1,-1.6 1,-2.7 2.5,-3.1 0.5,-0.2 1.2,-0.2 1.8,-0.1 l 0.2,0.1 c 1.4,0.4 2.4,1.5 2.5,3 h -4.5 c -0.5,0 -0.7,0.3 -0.7,0.7 0,0.4 0.2,0.7 0.7,0.7 h 5 c 0.4,0 0.7,-0.1 0.8,-0.3 0.2,-0.2 0.2,-0.5 0.2,-0.7 0.1,-2.4 -1.3,-4.2 -3.5,-4.8 z"
   inkscape:connector-curvature="0"
   style="fill:#546e7a" />
		<path
   id="XMLID_105_"
   class="st6"
   d="m 359.3,95.1 c 0,-2.4 -1.4,-4.2 -3.6,-4.8 v 0 c -1,-0.3 -2,-0.3 -2.9,0 -1.6,0.4 -2.8,1.6 -3.3,3.1 -0.6,1.7 -0.3,3.7 0.8,5.1 0.9,1.1 2.4,1.7 4,1.7 0,0 0.1,0 0.1,0 1.4,0 2.6,-0.4 3.4,-1.2 0.4,-0.4 0.3,-0.8 0.1,-1.1 -0.3,-0.3 -0.8,-0.4 -1.2,0 -0.8,0.6 -1.8,0.8 -2.5,0.8 -1.7,0 -3.1,-1.1 -3.4,-2.8 0,0 0,-0.3 -0.1,-0.6 0,-0.2 0,-0.5 0,-0.5 0.1,-1.6 1,-2.7 2.5,-3.1 0.5,-0.2 1.2,-0.2 1.8,-0.1 l 0.2,0.1 c 1.4,0.4 2.4,1.5 2.5,3 h -4.5 c -0.5,0 -0.7,0.3 -0.7,0.7 0,0.4 0.2,0.7 0.7,0.7 h 5 c 0.4,0 0.7,-0.1 0.8,-0.3 0.3,-0.2 0.3,-0.5 0.3,-0.7 z"
   inkscape:connector-curvature="0"
   style="fill:#546e7a" />
		<path
   id="XMLID_104_"
   class="st6"
   d="m 226.2,86 h -4.1 c -0.5,0 -0.8,0.3 -0.8,0.8 v 12.7 c 0,0.5 0.4,0.7 0.8,0.7 0.4,0 0.8,-0.3 0.8,-0.8 v -12 h 3.4 c 2.1,0 3.3,2.1 3.3,3.6 0,0.7 -0.2,1.7 -1,2.4 -0.6,0.6 -1.5,1 -2.5,1 h -0.4 c -0.2,0 -0.4,0.1 -0.5,0.2 -0.1,0.1 -0.2,0.3 -0.2,0.5 0,0.4 0.2,0.7 0.7,0.7 h 0.3 c 1.6,0 2.9,-0.5 3.8,-1.6 0.8,-0.9 1.2,-2.1 1.2,-3.3 0,-1.2 -0.4,-2.5 -1.2,-3.4 -0.5,-0.6 -1.7,-1.5 -3.6,-1.5 z"
   inkscape:connector-curvature="0"
   style="fill:#546e7a" />
	</g>
</g>


</svg>
