<?xml version="1.0" encoding="UTF-8" standalone="no"?>
<!-- Generator: Adobe Illustrator 19.0.0, SVG Export Plug-In . SVG Version: 6.00 Build 0)  -->

<svg
   version="1.1"
   id="Layer_1"
   x="0px"
   y="0px"
   viewBox="0 0 115.39754 54.999998"
   xml:space="preserve"
   sodipodi:docname="logo-small.svg"
   width="115.39754"
   height="55"
   inkscape:version="1.2.2 (b0a8486541, 2022-12-01)"
   xmlns:inkscape="http://www.inkscape.org/namespaces/inkscape"
   xmlns:sodipodi="http://sodipodi.sourceforge.net/DTD/sodipodi-0.dtd"
   xmlns="http://www.w3.org/2000/svg"
   xmlns:svg="http://www.w3.org/2000/svg"
   xmlns:rdf="http://www.w3.org/1999/02/22-rdf-syntax-ns#"
   xmlns:cc="http://creativecommons.org/ns#"
   xmlns:dc="http://purl.org/dc/elements/1.1/"><metadata
   id="metadata59"><rdf:RDF><cc:Work
       rdf:about=""><dc:format>image/svg+xml</dc:format><dc:type
         rdf:resource="http://purl.org/dc/dcmitype/StillImage" /></cc:Work></rdf:RDF></metadata><defs
   id="defs57">
	
	
</defs><sodipodi:namedview
   pagecolor="#ffffff"
   bordercolor="#666666"
   borderopacity="1"
   objecttolerance="10"
   gridtolerance="10"
   guidetolerance="10"
   inkscape:pageopacity="0"
   inkscape:pageshadow="2"
   inkscape:window-width="2560"
   inkscape:window-height="1390"
   id="namedview55"
   showgrid="false"
   inkscape:zoom="4.4850931"
   inkscape:cx="156.85293"
   inkscape:cy="-19.954993"
   inkscape:window-x="0"
   inkscape:window-y="50"
   inkscape:window-maximized="1"
   inkscape:current-layer="Layer_1"
   inkscape:showpageshadow="2"
   inkscape:pagecheckerboard="0"
   inkscape:deskcolor="#d1d1d1" />
<style
   type="text/css"
   id="style2">
	.st0{fill:#38A4DD;}
	.st1{fill:#58C1EF;}
	.st2{fill:#4DAF4E;}
	.st3{fill:#8BC249;}
	.st4{fill:#F37021;}
	.st5{fill:#F9A01B;}
	.st6{fill:#546E7A;}
	.st7{font-family:'Hero';}
	.st8{font-size:10px;}
</style>
<g
   id="XMLID_161_"
   transform="translate(-233.05123,-22.45)">
		<g
   id="XMLID_171_">
			<path
   id="XMLID_6_"
   class="st0"
   d="M 334.2,46.5 V 67 c 0,2.3 -1.9,4.2 -4.2,4.2 h -2 c -2.3,0 -4.2,-1.9 -4.2,-4.2 V 46.5 c 0,-2.3 1.9,-4.2 4.2,-4.2 h 2 c 2.4,0 4.2,1.8 4.2,4.2 z"
   inkscape:connector-curvature="0"
   style="fill:#38a4dd" />
			<path
   id="XMLID_5_"
   class="st1"
   d="m 334.2,32.6 v 1.8 c 0,2.3 -1.9,4.2 -4.2,4.2 h -1.8 c -2.3,0 -4.2,-1.9 -4.2,-4.2 v -1.8 c 0,-2.3 1.9,-4.2 4.2,-4.2 h 1.8 c 2.3,0 4.2,1.9 4.2,4.2 z"
   inkscape:connector-curvature="0"
   style="fill:#58c1ef" />
			<path
   id="XMLID_4_"
   class="st2"
   d="m 317.8,32.5 v 20.9 c 0,2.3 -1.9,4.2 -4.2,4.2 h -11.8 c -2.3,0 -4.2,-1.9 -4.2,-4.2 v -2 c 0,-2.3 1.9,-4.2 4.2,-4.2 h 1.4 c 2.3,0 4.2,-1.9 4.2,-4.2 v -0.2 c 0,-2.3 -1.9,-4.2 -4.2,-4.2 h -5.1 c -2.3,0 -4.2,1.9 -4.2,4.2 v 10.5 c 0,2.3 -1.9,4.2 -4.2,4.2 h -2 c -2.3,0 -4.2,-1.9 -4.2,-4.2 V 32.5 c 0,-2.3 1.9,-4.2 4.2,-4.2 h 25.8 c 2.4,0 4.3,1.9 4.3,4.2 z"
   inkscape:connector-curvature="0"
   style="fill:#4daf4e" />
			<path
   id="XMLID_7_"
   class="st3"
   d="m 293.8,65.6 v 1.8 c 0,2.3 -1.9,4.2 -4.2,4.2 h -1.8 c -2.3,0 -4.2,-1.9 -4.2,-4.2 v -1.8 c 0,-2.3 1.9,-4.2 4.2,-4.2 h 1.8 c 2.4,0 4.2,1.8 4.2,4.2 z"
   inkscape:connector-curvature="0"
   style="fill:#8bc249" />
			<path
   id="XMLID_8_"
   class="st4"
   d="m 277.6,32.5 v 34.8 c 0,2.3 -1.9,4.2 -4.2,4.2 h -21.9 c -2.3,0 -4.2,-1.9 -4.2,-4.2 v -2 c 0,-2.3 1.9,-4.2 4.2,-4.2 H 263 c 2.3,0 4.2,-1.9 4.2,-4.2 V 32.5 c 0,-2.3 1.9,-4.2 4.2,-4.2 h 2 c 2.3,0 4.2,1.9 4.2,4.2 z"
   inkscape:connector-curvature="0"
   style="fill:#f37021" />
			<path
   id="XMLID_9_"
   class="st5"
   d="m 257.5,51.6 v 1.8 c 0,2.3 -1.9,4.2 -4.2,4.2 h -1.8 c -2.3,0 -4.2,-1.9 -4.2,-4.2 v -1.8 c 0,-2.3 1.9,-4.2 4.2,-4.2 h 1.8 c 2.3,0 4.2,1.9 4.2,4.2 z"
   inkscape:connector-curvature="0"
   style="fill:#f9a01b" />
		</g>
		<g
   id="XMLID_170_">
		</g>
	</g>


</svg>
